<svg xmlns="http://www.w3.org/2000/svg" xmlns:xlink="http://www.w3.org/1999/xlink" width="40" zoomAndPan="magnify" viewBox="0 0 30 30.000001" height="40" preserveAspectRatio="xMidYMid meet" version="1.2"><defs><clipPath id="c2c32a9c26"><path d="M 2.710938 2.226562 L 27.386719 2.226562 L 27.386719 26.902344 L 2.710938 26.902344 Z M 2.710938 2.226562 "/></clipPath></defs><g id="03b32d8c0f"><g clip-rule="nonzero" clip-path="url(#c2c32a9c26)"><path style=" stroke:none;fill-rule:nonzero;fill:#efede1;fill-opacity:1;" d="M 21.121094 2.226562 L 8.851562 2.226562 C 5.480469 2.226562 2.710938 4.996094 2.710938 8.390625 L 2.710938 20.65625 C 2.710938 24.03125 5.480469 26.800781 8.851562 26.800781 L 21.121094 26.800781 C 24.515625 26.800781 27.285156 24.03125 27.285156 20.636719 L 27.285156 8.390625 C 27.285156 4.996094 24.515625 2.226562 21.121094 2.226562 Z M 18.292969 14.511719 L 15.972656 14.511719 L 15.972656 22.121094 L 13.046875 22.121094 L 13.046875 14.511719 L 11.488281 14.511719 L 11.488281 11.394531 L 12.851562 11.394531 L 12.851562 10.066406 C 12.851562 8.816406 13.476562 6.847656 16.109375 6.847656 L 18.507812 6.847656 L 18.507812 9.441406 L 16.8125 9.441406 C 16.539062 9.441406 16.167969 9.617188 16.167969 10.222656 L 16.167969 11.394531 L 18.566406 11.394531 Z M 18.292969 14.511719 "/></g></g></svg>