<svg xmlns="http://www.w3.org/2000/svg" xmlns:xlink="http://www.w3.org/1999/xlink" width="40" zoomAndPan="magnify" viewBox="0 0 30 30.000001" height="40" preserveAspectRatio="xMidYMid meet" version="1.2"><defs><clipPath id="90d48d65b1"><path d="M 3.386719 2.902344 L 26.613281 2.902344 L 26.613281 26.128906 L 3.386719 26.128906 Z M 3.386719 2.902344 "/></clipPath></defs><g id="511dd59d5e"><path style=" stroke:none;fill-rule:nonzero;fill:#efede1;fill-opacity:1;" d="M 8.351562 13.3125 L 8.363281 19.808594 L 12.789062 16.375 Z M 8.351562 13.3125 "/><path style=" stroke:none;fill-rule:nonzero;fill:#efede1;fill-opacity:1;" d="M 9.753906 11.710938 L 8.695312 12.441406 L 9.753906 13.171875 Z M 9.753906 11.710938 "/><path style=" stroke:none;fill-rule:nonzero;fill:#efede1;fill-opacity:1;" d="M 20.214844 11.730469 L 20.214844 13.152344 L 21.238281 12.441406 Z M 20.214844 11.730469 "/><path style=" stroke:none;fill-rule:nonzero;fill:#efede1;fill-opacity:1;" d="M 14.988281 10.253906 C 14.824219 10.253906 14.683594 10.332031 14.570312 10.488281 C 14.457031 10.640625 14.402344 10.84375 14.402344 11.09375 C 14.402344 11.296875 14.441406 11.46875 14.523438 11.605469 C 14.601562 11.742188 14.707031 11.8125 14.835938 11.8125 C 15.027344 11.8125 15.195312 11.714844 15.332031 11.53125 C 15.472656 11.34375 15.539062 11.132812 15.542969 10.890625 C 15.542969 10.699219 15.484375 10.542969 15.375 10.429688 C 15.261719 10.3125 15.132812 10.253906 14.988281 10.253906 "/><path style=" stroke:none;fill-rule:nonzero;fill:#efede1;fill-opacity:1;" d="M 12.875 13.070312 C 12.304688 12.480469 12.019531 11.777344 12.019531 10.960938 C 12.019531 10.109375 12.320312 9.398438 12.917969 8.824219 C 13.519531 8.253906 14.246094 7.96875 15.097656 7.96875 C 15.90625 7.96875 16.585938 8.21875 17.132812 8.722656 C 17.679688 9.226562 17.949219 9.832031 17.949219 10.546875 C 17.949219 11.109375 17.785156 11.589844 17.449219 11.988281 C 17.117188 12.386719 16.722656 12.585938 16.265625 12.585938 C 15.953125 12.585938 15.71875 12.46875 15.558594 12.226562 C 15.34375 12.476562 15.089844 12.601562 14.789062 12.601562 C 14.457031 12.601562 14.171875 12.460938 13.933594 12.179688 C 13.695312 11.898438 13.574219 11.523438 13.574219 11.066406 C 13.574219 10.59375 13.710938 10.207031 13.976562 9.90625 C 14.246094 9.609375 14.566406 9.460938 14.941406 9.460938 C 15.179688 9.460938 15.398438 9.539062 15.597656 9.703125 L 15.621094 9.566406 C 15.636719 9.488281 15.707031 9.429688 15.785156 9.429688 L 16.242188 9.429688 C 16.339844 9.429688 16.417969 9.515625 16.40625 9.617188 L 16.203125 11.378906 C 16.1875 11.503906 16.179688 11.613281 16.179688 11.707031 C 16.179688 11.824219 16.234375 11.882812 16.34375 11.882812 C 16.539062 11.882812 16.730469 11.757812 16.917969 11.507812 C 17.101562 11.257812 17.195312 10.941406 17.195312 10.5625 C 17.195312 10.011719 16.992188 9.554688 16.589844 9.191406 C 16.1875 8.828125 15.691406 8.644531 15.105469 8.644531 C 14.472656 8.644531 13.9375 8.867188 13.503906 9.308594 C 13.066406 9.753906 12.847656 10.304688 12.847656 10.964844 C 12.847656 11.574219 13.050781 12.105469 13.457031 12.558594 C 13.867188 13.007812 14.441406 13.234375 15.183594 13.234375 C 15.648438 13.234375 16.128906 13.132812 16.617188 12.921875 C 16.804688 12.839844 17.023438 12.929688 17.097656 13.117188 C 17.171875 13.304688 17.085938 13.511719 16.902344 13.589844 C 16.339844 13.832031 15.769531 13.953125 15.183594 13.953125 C 14.214844 13.953125 13.449219 13.65625 12.875 13.070312 Z M 14.710938 14.882812 C 14.875 14.757812 15.101562 14.753906 15.265625 14.878906 C 15.265625 14.878906 15.265625 14.882812 15.269531 14.882812 L 16.429688 15.785156 L 19.304688 13.785156 L 19.308594 7.035156 L 10.671875 7.035156 L 10.667969 13.800781 L 13.542969 15.789062 L 14.710938 14.882812 "/><g clip-rule="nonzero" clip-path="url(#90d48d65b1)"><path style=" stroke:none;fill-rule:nonzero;fill:#efede1;fill-opacity:1;" d="M 22.074219 21.175781 L 7.902344 21.175781 C 7.78125 21.175781 7.671875 21.148438 7.585938 21.0625 C 7.5 20.976562 7.449219 20.863281 7.449219 20.738281 L 7.4375 12.441406 C 7.4375 12.4375 7.441406 12.433594 7.441406 12.429688 C 7.445312 12.285156 7.515625 12.148438 7.636719 12.066406 L 9.753906 10.601562 L 9.761719 6.578125 C 9.761719 6.328125 9.964844 6.125 10.214844 6.125 L 19.765625 6.125 C 20.015625 6.125 20.222656 6.328125 20.222656 6.578125 L 20.214844 10.621094 L 22.324219 12.085938 C 22.410156 12.144531 22.472656 12.234375 22.503906 12.335938 C 22.515625 12.363281 22.519531 12.40625 22.519531 12.433594 L 22.53125 20.71875 C 22.53125 20.96875 22.328125 21.175781 22.074219 21.175781 Z M 14.984375 2.894531 C 8.574219 2.894531 3.375 8.089844 3.375 14.5 C 3.375 20.914062 8.574219 26.109375 14.984375 26.109375 C 21.394531 26.109375 26.59375 20.914062 26.59375 14.5 C 26.59375 8.089844 21.394531 2.894531 14.984375 2.894531 "/></g><path style=" stroke:none;fill-rule:nonzero;fill:#efede1;fill-opacity:1;" d="M 9.238281 20.28125 L 20.722656 20.265625 L 14.992188 15.820312 Z M 9.238281 20.28125 "/><path style=" stroke:none;fill-rule:nonzero;fill:#efede1;fill-opacity:1;" d="M 17.183594 16.371094 L 21.617188 19.808594 L 21.609375 13.292969 Z M 17.183594 16.371094 "/></g></svg>